<svg width="64" height="64" viewBox="0 0 64 64" fill="none" xmlns="http://www.w3.org/2000/svg">
<path d="M60 32C60 47.464 47.464 60 32 60C16.536 60 4 47.464 4 32C4 16.536 16.536 4 32 4C47.464 4 60 16.536 60 32Z" fill="#646464"/>
<path d="M60 31.5C60 46.6878 47.464 59 32 59C16.536 59 4 46.6878 4 31.5C4 16.3122 16.536 4 32 4C47.464 4 60 16.3122 60 31.5Z" fill="url(#paint0_linear_71_260)"/>
<path fill-rule="evenodd" clip-rule="evenodd" d="M41 11C41 10.4477 40.5523 10 40 10H38C37.4477 10 37 10.4477 37 11V11.3826C37 11.8582 36.6632 12.2628 36.2065 12.3954C35.4967 12.6015 34.8194 12.8841 34.1843 13.2338C33.7677 13.4632 33.2436 13.4151 32.9073 13.0789L32.5355 12.7071C32.145 12.3166 31.5118 12.3166 31.1213 12.7071L29.7071 14.1213C29.3166 14.5118 29.3166 15.145 29.7071 15.5355L30.0789 15.9073C30.4151 16.2436 30.4632 16.7677 30.2338 17.1843C29.8841 17.8194 29.6015 18.4967 29.3954 19.2065C29.2628 19.6632 28.8582 20 28.3826 20H28C27.4477 20 27 20.4477 27 21V23C27 23.5523 27.4477 24 28 24H28.3826C28.8582 24 29.2628 24.3367 29.3954 24.7935C29.5889 25.4598 29.8498 26.0975 30.1703 26.6986C30.3915 27.1134 30.3405 27.6301 30.0081 27.9625L29.7071 28.2635C29.3166 28.654 29.3166 29.2871 29.7071 29.6777L31.1213 31.0919C31.5118 31.4824 32.145 31.4824 32.5355 31.0919L32.7786 30.8488C33.1187 30.5087 33.6502 30.4639 34.0685 30.7014C34.7369 31.0811 35.4534 31.3859 36.2065 31.6046C36.6632 31.7372 37 32.1418 37 32.6174V33C37 33.5523 37.4477 34 38 34H40C40.5523 34 41 33.5523 41 33V32.6174C41 32.1418 41.3368 31.7372 41.7935 31.6046C42.5033 31.3985 43.1806 31.1159 43.8157 30.7662C44.2323 30.5368 44.7564 30.5849 45.0927 30.9211L45.2635 31.0919C45.654 31.4824 46.2871 31.4824 46.6777 31.0919L48.0919 29.6777C48.4824 29.2871 48.4824 28.654 48.0919 28.2635L47.9211 28.0927C47.5849 27.7564 47.5368 27.2323 47.7662 26.8157C48.1159 26.1806 48.3985 25.5033 48.6046 24.7935C48.7372 24.3368 49.1418 24 49.6174 24H50C50.5523 24 51 23.5523 51 23V21C51 20.4477 50.5523 20 50 20H49.6174C49.1418 20 48.7372 19.6632 48.6046 19.2065C48.3859 18.4534 48.0811 17.7369 47.7014 17.0685C47.4639 16.6502 47.5087 16.1187 47.8489 15.7786L48.0919 15.5355C48.4824 15.145 48.4824 14.5118 48.0919 14.1213L46.6777 12.7071C46.2872 12.3166 45.654 12.3166 45.2635 12.7071L44.9625 13.0081C44.6301 13.3405 44.1134 13.3915 43.6986 13.1703C43.0975 12.8498 42.4598 12.5889 41.7935 12.3954C41.3367 12.2628 41 11.8582 41 11.3826V11ZM39 28C42.3137 28 45 25.3137 45 22C45 18.6863 42.3137 16 39 16C35.6863 16 33 18.6863 33 22C33 25.3137 35.6863 28 39 28Z" fill="url(#paint1_linear_71_260)"/>
<path fill-rule="evenodd" clip-rule="evenodd" d="M38 8H40C41.5478 8 42.8219 9.17223 42.9828 10.6774C43.3463 10.8052 43.7018 10.95 44.0482 11.1108C45.2268 10.1248 46.9845 10.1855 48.0919 11.2929L49.5061 12.7071C50.5883 13.7894 50.6709 15.4927 49.7537 16.6697C49.9695 17.1044 50.1598 17.5542 50.3226 18.0172C51.8278 18.1781 53 19.4521 53 21V23C53 24.5479 51.8278 25.8219 50.3226 25.9828C50.175 26.4027 50.0047 26.8117 49.8133 27.2085C50.6667 28.3816 50.5643 30.0337 49.5061 31.0919L48.0919 32.5061C47.0337 33.5643 45.3816 33.6667 44.2085 32.8133C43.8117 33.0047 43.4027 33.175 42.9828 33.3226C42.8219 34.8278 41.5479 36 40 36H38C36.4521 36 35.1781 34.8278 35.0172 33.3226C34.5542 33.1598 34.1044 32.9695 33.6697 32.7537C32.4927 33.6709 30.7894 33.5883 29.7071 32.5061L28.2929 31.0919C27.1855 29.9845 27.1248 28.2268 28.1108 27.0482C27.95 26.7018 27.8052 26.3463 27.6774 25.9828C26.1722 25.8219 25 24.5479 25 23V21C25 19.4522 26.1722 18.1781 27.6774 18.0172C27.8213 17.608 27.9867 17.2091 28.1722 16.8218C27.1228 15.6438 27.1631 13.8369 28.2929 12.7071L29.7071 11.2929C30.8369 10.1631 32.6438 10.1228 33.8218 11.1722C34.2091 10.9867 34.608 10.8213 35.0172 10.6774C35.1781 9.17223 36.4521 8 38 8ZM39 26C41.2091 26 43 24.2091 43 22C43 19.7909 41.2091 18 39 18C36.7909 18 35 19.7909 35 22C35 24.2091 36.7909 26 39 26ZM40 10C40.5523 10 41 10.4477 41 11V11.3826C41 11.8582 41.3367 12.2628 41.7935 12.3954C42.4598 12.5889 43.0975 12.8498 43.6986 13.1703C44.1134 13.3915 44.6301 13.3405 44.9625 13.0081L45.2635 12.7071C45.654 12.3166 46.2871 12.3166 46.6777 12.7071L48.0919 14.1213C48.4824 14.5118 48.4824 15.145 48.0919 15.5355L47.8488 15.7786C47.5087 16.1187 47.4639 16.6502 47.7014 17.0685C48.0811 17.7369 48.3859 18.4534 48.6046 19.2065C48.7372 19.6632 49.1418 20 49.6174 20H50C50.5523 20 51 20.4477 51 21V23C51 23.5523 50.5523 24 50 24H49.6174C49.1418 24 48.7372 24.3368 48.6046 24.7935C48.3985 25.5033 48.1159 26.1806 47.7662 26.8157C47.5368 27.2323 47.5849 27.7564 47.9211 28.0927L48.0919 28.2635C48.4824 28.654 48.4824 29.2871 48.0919 29.6777L46.6777 31.0919C46.2871 31.4824 45.654 31.4824 45.2635 31.0919L45.0927 30.9211C44.7564 30.5849 44.2323 30.5368 43.8157 30.7662C43.1806 31.1159 42.5033 31.3985 41.7935 31.6046C41.3368 31.7372 41 32.1418 41 32.6174V33C41 33.5523 40.5523 34 40 34H38C37.4477 34 37 33.5523 37 33V32.6174C37 32.1418 36.6632 31.7372 36.2065 31.6046C35.4534 31.3859 34.7369 31.0811 34.0685 30.7014C33.6502 30.4639 33.1187 30.5087 32.7786 30.8488L32.5355 31.0919C32.145 31.4824 31.5118 31.4824 31.1213 31.0919L29.7071 29.6777C29.3166 29.2871 29.3166 28.654 29.7071 28.2635L30.0081 27.9625C30.3405 27.6301 30.3915 27.1134 30.1703 26.6986C29.8498 26.0975 29.5889 25.4598 29.3954 24.7935C29.2628 24.3367 28.8582 24 28.3826 24H28C27.4477 24 27 23.5523 27 23V21C27 20.4477 27.4477 20 28 20H28.3826C28.8582 20 29.2628 19.6632 29.3954 19.2065C29.6015 18.4967 29.8841 17.8194 30.2338 17.1843C30.4632 16.7677 30.4151 16.2436 30.0789 15.9073L29.7071 15.5355C29.3166 15.145 29.3166 14.5118 29.7071 14.1213L31.1213 12.7071C31.5118 12.3166 32.145 12.3166 32.5355 12.7071L32.9073 13.0789C33.2436 13.4151 33.7677 13.4632 34.1843 13.2338C34.8194 12.8841 35.4967 12.6015 36.2065 12.3954C36.6632 12.2628 37 11.8582 37 11.3826V11C37 10.4477 37.4477 10 38 10H40ZM45 22C45 25.3137 42.3137 28 39 28C35.6863 28 33 25.3137 33 22C33 18.6863 35.6863 16 39 16C42.3137 16 45 18.6863 45 22Z" fill="#333333"/>
<path fill-rule="evenodd" clip-rule="evenodd" d="M10.5858 32.5858L24.5858 18.5858L27.4142 21.4142L13.4142 35.4142C12.6332 36.1953 11.3668 36.1953 10.5858 35.4142C9.80474 34.6332 9.80474 33.3668 10.5858 32.5858Z" fill="black"/>
<path d="M36 20C36 25.5228 31.5228 30 26 30C20.4772 30 16 25.5228 16 20C16 14.4772 20.4772 10 26 10C31.5228 10 36 14.4772 36 20Z" fill="url(#paint2_linear_71_260)"/>
<path fill-rule="evenodd" clip-rule="evenodd" d="M26 28C30.4183 28 34 24.4183 34 20C34 15.5817 30.4183 12 26 12C21.5817 12 18 15.5817 18 20C18 24.4183 21.5817 28 26 28ZM26 30C31.5228 30 36 25.5228 36 20C36 14.4772 31.5228 10 26 10C20.4772 10 16 14.4772 16 20C16 25.5228 20.4772 30 26 30Z" fill="black"/>
<path fill-rule="evenodd" clip-rule="evenodd" d="M26 15C26 14.4477 25.5489 13.9913 25.0042 14.0823C22.4883 14.5025 20.5025 16.4883 20.0823 19.0042C19.9913 19.5489 20.4477 20 21 20V20C21.5523 20 21.9872 19.5453 22.1234 19.0101C22.4834 17.5963 23.5963 16.4834 25.0101 16.1234C25.5453 15.9872 26 15.5523 26 15V15Z" fill="white"/>
<path d="M21.5799 40.8656L25.9944 49.9889C26.1797 50.3595 26.2724 50.6375 26.2724 50.8228C26.2724 51.2152 25.9563 51.5694 25.3241 51.8855C24.9535 52.0708 24.6592 52.1635 24.4412 52.1635C24.2341 52.1635 24.0597 52.1144 23.918 52.0163C23.7872 51.9182 23.6891 51.8147 23.6237 51.7057C23.5692 51.5967 23.4874 51.4332 23.3784 51.2152L22.5282 49.4494H17.9993L17.1491 51.2152C17.0401 51.4332 16.9529 51.5912 16.8875 51.6893C16.833 51.7874 16.7349 51.891 16.5932 52C16.4624 52.0981 16.288 52.1471 16.07 52.1471C15.8629 52.1471 15.574 52.0545 15.2034 51.8692C14.5712 51.564 14.2551 51.2152 14.2551 50.8228C14.2551 50.6375 14.3478 50.3595 14.5331 49.9889L18.9476 40.8493C19.0675 40.5986 19.2473 40.3969 19.4871 40.2443C19.7378 40.0917 19.9994 40.0154 20.2719 40.0154C20.8605 40.0154 21.2965 40.2988 21.5799 40.8656ZM20.2556 44.7896L19.1765 47.0296H21.351L20.2556 44.7896Z" fill="#333333"/>
<path d="M29.1115 39.9991L32.1363 40.0154C33.7168 40.0154 35.1065 40.5877 36.3055 41.7322C37.5045 42.8658 38.104 44.2664 38.104 45.9341C38.104 47.5909 37.5154 49.0134 36.3382 50.2015C35.1719 51.3896 33.7549 51.9836 32.0872 51.9836H29.0952C28.4303 51.9836 28.0161 51.8474 27.8526 51.5749C27.7218 51.346 27.6564 50.9972 27.6564 50.5285V41.4379C27.6564 41.1763 27.6618 40.9855 27.6727 40.8656C27.6945 40.7457 27.749 40.604 27.8362 40.4405C27.9888 40.1462 28.4139 39.9991 29.1115 39.9991ZM32.1363 49.0897C32.9211 49.0897 33.6296 48.8008 34.2618 48.2231C34.894 47.6345 35.2101 46.8988 35.2101 46.0159C35.2101 45.133 34.8994 44.3972 34.2781 43.8086C33.6677 43.2091 32.9483 42.9094 32.1199 42.9094H30.5503V49.0897H32.1363Z" fill="#333333"/>
<path d="M39.4698 39.9991H48.5604C48.9092 39.9991 49.1653 40.0427 49.3288 40.1299C49.4923 40.2062 49.6013 40.3315 49.6558 40.5059C49.7103 40.6803 49.7376 40.9092 49.7376 41.1926C49.7376 41.476 49.7103 41.7049 49.6558 41.8793C49.6013 42.0428 49.5087 42.1573 49.3779 42.2227C49.1817 42.3208 48.9037 42.3698 48.544 42.3698H45.4212V50.5939C45.4212 50.8446 45.4103 51.0299 45.3885 51.1498C45.3776 51.2697 45.3285 51.4114 45.2413 51.5749C45.165 51.7275 45.0233 51.8365 44.8162 51.9019C44.6091 51.9673 44.3366 52 43.9987 52C43.6608 52 43.3883 51.9673 43.1812 51.9019C42.985 51.8365 42.8433 51.7275 42.7561 51.5749C42.6798 51.4114 42.6308 51.2697 42.609 51.1498C42.5981 51.019 42.5926 50.8282 42.5926 50.5775V42.3698H39.4534C39.1046 42.3698 38.8485 42.3317 38.685 42.2554C38.5215 42.1682 38.4125 42.0374 38.358 41.863C38.3035 41.6886 38.2762 41.4597 38.2762 41.1763C38.2762 40.8929 38.3035 40.6694 38.358 40.5059C38.4125 40.3315 38.5051 40.2116 38.6359 40.1462C38.8321 40.0481 39.1101 39.9991 39.4698 39.9991Z" fill="#333333"/>
<defs>
<linearGradient id="paint0_linear_71_260" x1="32" y1="4" x2="32" y2="59" gradientUnits="userSpaceOnUse">
<stop stop-color="#CDCDCE"/>
<stop offset="1" stop-color="#8A8E8F"/>
</linearGradient>
<linearGradient id="paint1_linear_71_260" x1="27" y1="10" x2="51" y2="34" gradientUnits="userSpaceOnUse">
<stop stop-color="#F4BD79"/>
<stop offset="1" stop-color="#F3921A"/>
</linearGradient>
<linearGradient id="paint2_linear_71_260" x1="26" y1="-10" x2="26" y2="30" gradientUnits="userSpaceOnUse">
<stop stop-color="#F3FDFF"/>
<stop offset="1" stop-color="#C6F5FF"/>
</linearGradient>
</defs>
</svg>
